<svg width="48" height="48" viewBox="0 0 48 48" fill="none" xmlns="http://www.w3.org/2000/svg">
<path d="M38.0996 9.82011C36.2657 7.96832 34.0817 6.50004 31.6746 5.50083C29.2676 4.50162 26.6858 3.99147 24.0796 4.00011C13.1596 4.00011 4.25961 12.9001 4.25961 23.8201C4.25961 27.3201 5.17961 30.7201 6.89961 33.7201L4.09961 44.0001L14.5996 41.2401C17.4996 42.8201 20.7596 43.6601 24.0796 43.6601C34.9996 43.6601 43.8996 34.7601 43.8996 23.8401C43.8996 18.5401 41.8396 13.5601 38.0996 9.82011ZM24.0796 40.3001C21.1196 40.3001 18.2196 39.5001 15.6796 38.0001L15.0796 37.6401L8.83961 39.2801L10.4996 33.2001L10.0996 32.5801C8.4547 29.9542 7.58146 26.9187 7.57961 23.8201C7.57961 14.7401 14.9796 7.34011 24.0596 7.34011C28.4596 7.34011 32.5996 9.06011 35.6996 12.1801C37.2348 13.7078 38.4515 15.5252 39.2789 17.5268C40.1063 19.5283 40.528 21.6743 40.5196 23.8401C40.5596 32.9201 33.1596 40.3001 24.0796 40.3001ZM33.1196 27.9801C32.6196 27.7401 30.1796 26.5401 29.7396 26.3601C29.2796 26.2001 28.9596 26.1201 28.6196 26.6001C28.2796 27.1001 27.3396 28.2201 27.0596 28.5401C26.7796 28.8801 26.4796 28.9201 25.9796 28.6601C25.4796 28.4201 23.8796 27.8801 21.9996 26.2001C20.5196 24.8801 19.5396 23.2601 19.2396 22.7601C18.9596 22.2601 19.1996 22.0001 19.4596 21.7401C19.6796 21.5201 19.9596 21.1601 20.1996 20.8801C20.4396 20.6001 20.5396 20.3801 20.6996 20.0601C20.8596 19.7201 20.7796 19.4401 20.6596 19.2001C20.5396 18.9601 19.5396 16.5201 19.1396 15.5201C18.7396 14.5601 18.3196 14.6801 18.0196 14.6601H17.0596C16.7196 14.6601 16.1996 14.7801 15.7396 15.2801C15.2996 15.7801 14.0196 16.9801 14.0196 19.4201C14.0196 21.8601 15.7996 24.2201 16.0396 24.5401C16.2796 24.8801 19.5396 29.8801 24.4996 32.0201C25.6796 32.5401 26.5996 32.8401 27.3196 33.0601C28.4996 33.4401 29.5796 33.3801 30.4396 33.2601C31.3996 33.1201 33.3796 32.0601 33.7796 30.9001C34.1996 29.7401 34.1996 28.7601 34.0596 28.5401C33.9196 28.3201 33.6196 28.2201 33.1196 27.9801Z" fill="#E3E2DD"/>
</svg>
