<svg width="28" height="28" viewBox="0 0 28 28" fill="none" xmlns="http://www.w3.org/2000/svg">
<g clip-path="url(#clip0_344_1727)">
<path d="M14.0003 8.1665C10.7803 8.1665 8.16699 10.7798 8.16699 13.9998C8.16699 17.2198 10.7803 19.8332 14.0003 19.8332C17.2203 19.8332 19.8337 17.2198 19.8337 13.9998C19.8337 10.7798 17.2203 8.1665 14.0003 8.1665ZM2.33366 15.1665H4.66699C5.30866 15.1665 5.83366 14.6415 5.83366 13.9998C5.83366 13.3582 5.30866 12.8332 4.66699 12.8332H2.33366C1.69199 12.8332 1.16699 13.3582 1.16699 13.9998C1.16699 14.6415 1.69199 15.1665 2.33366 15.1665ZM23.3337 15.1665H25.667C26.3087 15.1665 26.8337 14.6415 26.8337 13.9998C26.8337 13.3582 26.3087 12.8332 25.667 12.8332H23.3337C22.692 12.8332 22.167 13.3582 22.167 13.9998C22.167 14.6415 22.692 15.1665 23.3337 15.1665ZM12.8337 2.33317V4.6665C12.8337 5.30817 13.3587 5.83317 14.0003 5.83317C14.642 5.83317 15.167 5.30817 15.167 4.6665V2.33317C15.167 1.6915 14.642 1.1665 14.0003 1.1665C13.3587 1.1665 12.8337 1.6915 12.8337 2.33317ZM12.8337 23.3332V25.6665C12.8337 26.3082 13.3587 26.8332 14.0003 26.8332C14.642 26.8332 15.167 26.3082 15.167 25.6665V23.3332C15.167 22.6915 14.642 22.1665 14.0003 22.1665C13.3587 22.1665 12.8337 22.6915 12.8337 23.3332ZM6.98866 5.34317C6.53366 4.88817 5.78699 4.88817 5.34366 5.34317C4.88866 5.79817 4.88866 6.54484 5.34366 6.98817L6.58033 8.22484C7.03533 8.67984 7.78199 8.67984 8.22533 8.22484C8.66866 7.76984 8.68033 7.02317 8.22533 6.57984L6.98866 5.34317ZM21.4203 19.7748C20.9653 19.3198 20.2187 19.3198 19.7753 19.7748C19.3203 20.2298 19.3203 20.9765 19.7753 21.4198L21.012 22.6565C21.467 23.1115 22.2137 23.1115 22.657 22.6565C23.112 22.2015 23.112 21.4548 22.657 21.0115L21.4203 19.7748ZM22.657 6.98817C23.112 6.53317 23.112 5.7865 22.657 5.34317C22.202 4.88817 21.4553 4.88817 21.012 5.34317L19.7753 6.57984C19.3203 7.03484 19.3203 7.7815 19.7753 8.22484C20.2303 8.66817 20.977 8.67984 21.4203 8.22484L22.657 6.98817ZM8.22533 21.4198C8.68033 20.9648 8.68033 20.2182 8.22533 19.7748C7.77033 19.3198 7.02366 19.3198 6.58033 19.7748L5.34366 21.0115C4.88866 21.4665 4.88866 22.2132 5.34366 22.6565C5.79866 23.0998 6.54533 23.1115 6.98866 22.6565L8.22533 21.4198Z" fill="#E3E2DD"/>
</g>
<defs>
<clipPath id="clip0_344_1727">
<rect width="28" height="28" fill="white"/>
</clipPath>
</defs>
</svg>
